<mxfile host="app.diagrams.net" modified="2022-03-17T18:05:20.234Z" agent="5.0 (Windows)" etag="zNRYo2RBD7kMPRk7Mt6L" version="17.1.3" type="github">
  <diagram id="U2fZ0o1-ZFRVwqheT1Y7" name="Page-1">
    <mxGraphModel dx="981" dy="538" grid="1" gridSize="10" guides="1" tooltips="1" connect="1" arrows="1" fold="1" page="1" pageScale="1" pageWidth="583" pageHeight="827" math="0" shadow="0">
      <root>
        <mxCell id="0" />
        <mxCell id="1" parent="0" />
        <mxCell id="kEDIbQ2g3xKM384mpVj0-10" style="edgeStyle=orthogonalEdgeStyle;rounded=0;orthogonalLoop=1;jettySize=auto;html=1;exitX=0.5;exitY=1;exitDx=0;exitDy=0;" edge="1" parent="1" source="kEDIbQ2g3xKM384mpVj0-1" target="kEDIbQ2g3xKM384mpVj0-2">
          <mxGeometry relative="1" as="geometry" />
        </mxCell>
        <mxCell id="kEDIbQ2g3xKM384mpVj0-1" value="Filter objects by current layer" style="rounded=0;whiteSpace=wrap;html=1;" vertex="1" parent="1">
          <mxGeometry x="208" y="190" width="180" height="20" as="geometry" />
        </mxCell>
        <mxCell id="kEDIbQ2g3xKM384mpVj0-9" style="edgeStyle=orthogonalEdgeStyle;rounded=0;orthogonalLoop=1;jettySize=auto;html=1;exitX=0.5;exitY=1;exitDx=0;exitDy=0;entryX=0.5;entryY=0;entryDx=0;entryDy=0;" edge="1" parent="1" source="kEDIbQ2g3xKM384mpVj0-2" target="kEDIbQ2g3xKM384mpVj0-8">
          <mxGeometry relative="1" as="geometry" />
        </mxCell>
        <mxCell id="kEDIbQ2g3xKM384mpVj0-2" value="G-Buffer" style="rounded=0;whiteSpace=wrap;html=1;" vertex="1" parent="1">
          <mxGeometry x="208" y="230" width="180" height="30" as="geometry" />
        </mxCell>
        <mxCell id="kEDIbQ2g3xKM384mpVj0-6" style="edgeStyle=orthogonalEdgeStyle;rounded=0;orthogonalLoop=1;jettySize=auto;html=1;exitX=1;exitY=0.5;exitDx=0;exitDy=0;entryX=0.5;entryY=1;entryDx=0;entryDy=0;" edge="1" parent="1" source="kEDIbQ2g3xKM384mpVj0-3" target="kEDIbQ2g3xKM384mpVj0-5">
          <mxGeometry relative="1" as="geometry" />
        </mxCell>
        <mxCell id="kEDIbQ2g3xKM384mpVj0-11" value="No" style="edgeLabel;html=1;align=center;verticalAlign=middle;resizable=0;points=[];" vertex="1" connectable="0" parent="kEDIbQ2g3xKM384mpVj0-6">
          <mxGeometry x="0.1787" y="-2" relative="1" as="geometry">
            <mxPoint as="offset" />
          </mxGeometry>
        </mxCell>
        <mxCell id="kEDIbQ2g3xKM384mpVj0-19" style="edgeStyle=orthogonalEdgeStyle;rounded=0;orthogonalLoop=1;jettySize=auto;html=1;exitX=0.5;exitY=1;exitDx=0;exitDy=0;entryX=0.5;entryY=0;entryDx=0;entryDy=0;" edge="1" parent="1" source="kEDIbQ2g3xKM384mpVj0-3" target="kEDIbQ2g3xKM384mpVj0-21">
          <mxGeometry relative="1" as="geometry">
            <mxPoint x="298.0344827586207" y="490" as="targetPoint" />
            <Array as="points">
              <mxPoint x="298" y="470" />
              <mxPoint x="298" y="470" />
            </Array>
          </mxGeometry>
        </mxCell>
        <mxCell id="kEDIbQ2g3xKM384mpVj0-23" value="Yes" style="edgeLabel;html=1;align=center;verticalAlign=middle;resizable=0;points=[];" vertex="1" connectable="0" parent="kEDIbQ2g3xKM384mpVj0-19">
          <mxGeometry x="-0.6765" relative="1" as="geometry">
            <mxPoint y="7" as="offset" />
          </mxGeometry>
        </mxCell>
        <mxCell id="kEDIbQ2g3xKM384mpVj0-3" value="Last layer?" style="rounded=0;whiteSpace=wrap;html=1;" vertex="1" parent="1">
          <mxGeometry x="208" y="430" width="180" height="26" as="geometry" />
        </mxCell>
        <mxCell id="kEDIbQ2g3xKM384mpVj0-13" style="edgeStyle=orthogonalEdgeStyle;rounded=0;orthogonalLoop=1;jettySize=auto;html=1;exitX=0.5;exitY=0;exitDx=0;exitDy=0;entryX=1;entryY=0.5;entryDx=0;entryDy=0;" edge="1" parent="1" source="kEDIbQ2g3xKM384mpVj0-5" target="kEDIbQ2g3xKM384mpVj0-12">
          <mxGeometry relative="1" as="geometry" />
        </mxCell>
        <mxCell id="kEDIbQ2g3xKM384mpVj0-5" value="Next layer" style="rounded=0;whiteSpace=wrap;html=1;" vertex="1" parent="1">
          <mxGeometry x="458" y="285" width="70" height="20" as="geometry" />
        </mxCell>
        <mxCell id="kEDIbQ2g3xKM384mpVj0-16" style="edgeStyle=orthogonalEdgeStyle;rounded=0;orthogonalLoop=1;jettySize=auto;html=1;exitX=0.5;exitY=1;exitDx=0;exitDy=0;entryX=0.5;entryY=0;entryDx=0;entryDy=0;" edge="1" parent="1" source="kEDIbQ2g3xKM384mpVj0-8" target="kEDIbQ2g3xKM384mpVj0-14">
          <mxGeometry relative="1" as="geometry" />
        </mxCell>
        <mxCell id="kEDIbQ2g3xKM384mpVj0-8" value="Intermediate framebuffer" style="rounded=0;whiteSpace=wrap;html=1;fillColor=#fff2cc;strokeColor=#d6b656;" vertex="1" parent="1">
          <mxGeometry x="208" y="280" width="180" height="30" as="geometry" />
        </mxCell>
        <mxCell id="kEDIbQ2g3xKM384mpVj0-24" style="edgeStyle=orthogonalEdgeStyle;rounded=0;orthogonalLoop=1;jettySize=auto;html=1;exitX=0.5;exitY=1;exitDx=0;exitDy=0;entryX=0.5;entryY=0;entryDx=0;entryDy=0;" edge="1" parent="1" source="kEDIbQ2g3xKM384mpVj0-12" target="kEDIbQ2g3xKM384mpVj0-1">
          <mxGeometry relative="1" as="geometry" />
        </mxCell>
        <mxCell id="kEDIbQ2g3xKM384mpVj0-12" value="Reset G-Buffer" style="rounded=0;whiteSpace=wrap;html=1;fillColor=#f5f5f5;strokeColor=#666666;fontColor=#333333;" vertex="1" parent="1">
          <mxGeometry x="208" y="150" width="180" height="20" as="geometry" />
        </mxCell>
        <mxCell id="kEDIbQ2g3xKM384mpVj0-17" style="edgeStyle=orthogonalEdgeStyle;rounded=0;orthogonalLoop=1;jettySize=auto;html=1;exitX=0.5;exitY=1;exitDx=0;exitDy=0;entryX=0.5;entryY=0;entryDx=0;entryDy=0;" edge="1" parent="1" source="kEDIbQ2g3xKM384mpVj0-14" target="kEDIbQ2g3xKM384mpVj0-15">
          <mxGeometry relative="1" as="geometry" />
        </mxCell>
        <mxCell id="kEDIbQ2g3xKM384mpVj0-14" value="Blend output by alpha" style="rounded=1;whiteSpace=wrap;html=1;fillColor=#e1d5e7;strokeColor=#9673a6;" vertex="1" parent="1">
          <mxGeometry x="208" y="330" width="180" height="30" as="geometry" />
        </mxCell>
        <mxCell id="kEDIbQ2g3xKM384mpVj0-18" style="edgeStyle=orthogonalEdgeStyle;rounded=0;orthogonalLoop=1;jettySize=auto;html=1;exitX=0.5;exitY=1;exitDx=0;exitDy=0;entryX=0.5;entryY=0;entryDx=0;entryDy=0;" edge="1" parent="1" source="kEDIbQ2g3xKM384mpVj0-15" target="kEDIbQ2g3xKM384mpVj0-3">
          <mxGeometry relative="1" as="geometry" />
        </mxCell>
        <mxCell id="kEDIbQ2g3xKM384mpVj0-15" value="Framebuffer" style="rounded=0;whiteSpace=wrap;html=1;fillColor=#ffe6cc;strokeColor=#d79b00;" vertex="1" parent="1">
          <mxGeometry x="208" y="380" width="180" height="30" as="geometry" />
        </mxCell>
        <mxCell id="kEDIbQ2g3xKM384mpVj0-21" value="End" style="rhombus;whiteSpace=wrap;html=1;fillColor=#f8cecc;strokeColor=#b85450;" vertex="1" parent="1">
          <mxGeometry x="273" y="500" width="50" height="50" as="geometry" />
        </mxCell>
        <mxCell id="kEDIbQ2g3xKM384mpVj0-26" style="edgeStyle=orthogonalEdgeStyle;rounded=0;orthogonalLoop=1;jettySize=auto;html=1;exitX=1;exitY=0.5;exitDx=0;exitDy=0;entryX=0;entryY=0.5;entryDx=0;entryDy=0;" edge="1" parent="1" source="kEDIbQ2g3xKM384mpVj0-25" target="kEDIbQ2g3xKM384mpVj0-1">
          <mxGeometry relative="1" as="geometry" />
        </mxCell>
        <mxCell id="kEDIbQ2g3xKM384mpVj0-25" value="Render objects" style="rounded=0;whiteSpace=wrap;html=1;fillColor=#d5e8d4;strokeColor=#82b366;" vertex="1" parent="1">
          <mxGeometry x="56" y="190" width="120" height="20" as="geometry" />
        </mxCell>
      </root>
    </mxGraphModel>
  </diagram>
</mxfile>
